HIERARCHY
ROOT Hips
{
	OFFSET 0.000000 97.167313 0.000000
	CHANNELS 6 Xposition Yposition Zposition Xrotation Yrotation Zrotation
	JOINT Spine
	{
		OFFSET 0.000000 13.784798 0.064400
		CHANNELS 3 Xrotation Yrotation Zrotation
		JOINT Spine1
		{
			OFFSET 0.000000 12.037903 0.404700
			CHANNELS 3 Xrotation Yrotation Zrotation
			JOINT Spine2
			{
				OFFSET 0.000000 17.795601 0.420200
				CHANNELS 3 Xrotation Yrotation Zrotation
				JOINT Neck
				{
					OFFSET 0.000000 39.131302 11.954600
					CHANNELS 3 Xrotation Yrotation Zrotation
					JOINT Head
					{
						OFFSET 0.000000 14.456192 15.627699
						CHANNELS 3 Xrotation Yrotation Zrotation
						JOINT HeadTop_End
						{
							OFFSET 0.000000 15.703506 7.603401
							CHANNELS 3 Xrotation Yrotation Zrotation
							End Site
							{
								OFFSET 0.000000 17.447403 0.000000
							}
						}
					}
				}
				JOINT LeftShoulder
				{
					OFFSET 17.399500 24.608795 1.168800
					CHANNELS 3 Xrotation Yrotation Zrotation
					JOINT LeftArm
					{
						OFFSET 18.980635 5.765305 1.818600
						CHANNELS 3 Xrotation Yrotation Zrotation
						JOINT LeftForeArm
						{
							OFFSET 49.290169 0.000000 0.000000
							CHANNELS 3 Xrotation Yrotation Zrotation
							JOINT LeftHand
							{
								OFFSET 31.562012 0.000000 0.000000
								CHANNELS 3 Xrotation Yrotation Zrotation
								JOINT LeftHandThumb1
								{
									OFFSET 6.133995 -4.388519 7.076070
									CHANNELS 3 Xrotation Yrotation Zrotation
									JOINT LeftHandThumb2
									{
										OFFSET 6.037666 -3.485840 3.485847
										CHANNELS 3 Xrotation Yrotation Zrotation
										JOINT LeftHandThumb3
										{
											OFFSET 6.496506 -3.750763 3.750761
											CHANNELS 3 Xrotation Yrotation Zrotation
											JOINT LeftHandThumb4
											{
												OFFSET 5.616882 -3.242905 3.242910
												CHANNELS 3 Xrotation Yrotation Zrotation
												End Site
												{
													OFFSET -1.254608 7.132141 0.375429
												}
											}
										}
									}
								}
								JOINT LeftHandPinky1
								{
									OFFSET 18.920792 -0.453171 -11.426712
									CHANNELS 3 Xrotation Yrotation Zrotation
									JOINT LeftHandPinky2
									{
										OFFSET 4.919586 0.000000 0.000000
										CHANNELS 3 Xrotation Yrotation Zrotation
										JOINT LeftHandPinky3
										{
											OFFSET 5.233047 0.000000 0.000000
											CHANNELS 3 Xrotation Yrotation Zrotation
											JOINT LeftHandPinky4
											{
												OFFSET 5.571716 0.000000 0.000000
												CHANNELS 3 Xrotation Yrotation Zrotation
												End Site
												{
													OFFSET -3.459808 4.342407 -0.466164
												}
											}
										}
									}
								}
								JOINT LeftHandRing1
								{
									OFFSET 22.726120 -0.094986 -6.500475
									CHANNELS 3 Xrotation Yrotation Zrotation
									JOINT LeftHandRing2
									{
										OFFSET 6.408615 0.000000 0.000000
										CHANNELS 3 Xrotation Yrotation Zrotation
										JOINT LeftHandRing3
										{
											OFFSET 6.150223 0.000000 0.000000
											CHANNELS 3 Xrotation Yrotation Zrotation
											JOINT LeftHandRing4
											{
												OFFSET 6.145386 0.000000 0.000000
												CHANNELS 3 Xrotation Yrotation Zrotation
												End Site
												{
													OFFSET -3.671402 4.923981 -0.202372
												}
											}
										}
									}
								}
								JOINT LeftHandMiddle1
								{
									OFFSET 23.373947 0.000000 0.000001
									CHANNELS 3 Xrotation Yrotation Zrotation
									JOINT LeftHandMiddle2
									{
										OFFSET 6.996567 0.000000 0.000000
										CHANNELS 3 Xrotation Yrotation Zrotation
										JOINT LeftHandMiddle3
										{
											OFFSET 7.015945 0.000000 0.000000
											CHANNELS 3 Xrotation Yrotation Zrotation
											JOINT LeftHandMiddle4
											{
												OFFSET 7.721573 0.000000 0.000000
												CHANNELS 3 Xrotation Yrotation Zrotation
												End Site
												{
													OFFSET -4.651108 6.158463 0.251582
												}
											}
										}
									}
								}
								JOINT LeftHandIndex1
								{
									OFFSET 21.310577 -0.490082 6.209344
									CHANNELS 3 Xrotation Yrotation Zrotation
									JOINT LeftHandIndex2
									{
										OFFSET 7.536453 0.000000 0.000000
										CHANNELS 3 Xrotation Yrotation Zrotation
										JOINT LeftHandIndex3
										{
											OFFSET 7.512344 0.000000 0.000000
											CHANNELS 3 Xrotation Yrotation Zrotation
											JOINT LeftHandIndex4
											{
												OFFSET 10.212402 0.000000 0.000001
												CHANNELS 3 Xrotation Yrotation Zrotation
												End Site
												{
													OFFSET -5.180801 8.690506 1.388433
												}
											}
										}
									}
								}
							}
						}
					}
				}
				JOINT RightShoulder
				{
					OFFSET -17.399500 24.608795 1.168800
					CHANNELS 3 Xrotation Yrotation Zrotation
					JOINT RightArm
					{
						OFFSET -18.980635 5.765305 1.818600
						CHANNELS 3 Xrotation Yrotation Zrotation
						JOINT RightForeArm
						{
							OFFSET -49.290169 0.000000 0.000000
							CHANNELS 3 Xrotation Yrotation Zrotation
							JOINT RightHand
							{
								OFFSET -31.562012 0.000000 0.000000
								CHANNELS 3 Xrotation Yrotation Zrotation
								JOINT RightHandThumb1
								{
									OFFSET -6.133995 -4.388519 7.076070
									CHANNELS 3 Xrotation Yrotation Zrotation
									JOINT RightHandThumb2
									{
										OFFSET -6.037666 -3.485840 3.485847
										CHANNELS 3 Xrotation Yrotation Zrotation
										JOINT RightHandThumb3
										{
											OFFSET -6.496506 -3.750763 3.750761
											CHANNELS 3 Xrotation Yrotation Zrotation
											JOINT RightHandThumb4
											{
												OFFSET -5.616882 -3.242905 3.242910
												CHANNELS 3 Xrotation Yrotation Zrotation
												End Site
												{
													OFFSET 1.254608 7.132141 0.375429
												}
											}
										}
									}
								}
								JOINT RightHandIndex1
								{
									OFFSET -21.310577 -0.490082 6.209344
									CHANNELS 3 Xrotation Yrotation Zrotation
									JOINT RightHandIndex2
									{
										OFFSET -7.536453 0.000000 0.000000
										CHANNELS 3 Xrotation Yrotation Zrotation
										JOINT RightHandIndex3
										{
											OFFSET -7.512344 0.000000 0.000000
											CHANNELS 3 Xrotation Yrotation Zrotation
											JOINT RightHandIndex4
											{
												OFFSET -10.212402 0.000000 0.000001
												CHANNELS 3 Xrotation Yrotation Zrotation
												End Site
												{
													OFFSET 5.180801 8.690506 1.388433
												}
											}
										}
									}
								}
								JOINT RightHandMiddle1
								{
									OFFSET -23.373947 0.000000 0.000001
									CHANNELS 3 Xrotation Yrotation Zrotation
									JOINT RightHandMiddle2
									{
										OFFSET -6.996567 0.000000 0.000000
										CHANNELS 3 Xrotation Yrotation Zrotation
										JOINT RightHandMiddle3
										{
											OFFSET -7.015945 0.000000 0.000000
											CHANNELS 3 Xrotation Yrotation Zrotation
											JOINT RightHandMiddle4
											{
												OFFSET -7.721573 0.000000 0.000000
												CHANNELS 3 Xrotation Yrotation Zrotation
												End Site
												{
													OFFSET 4.651108 6.158463 0.251582
												}
											}
										}
									}
								}
								JOINT RightHandRing1
								{
									OFFSET -22.726120 -0.094986 -6.500475
									CHANNELS 3 Xrotation Yrotation Zrotation
									JOINT RightHandRing2
									{
										OFFSET -6.408615 0.000000 0.000000
										CHANNELS 3 Xrotation Yrotation Zrotation
										JOINT RightHandRing3
										{
											OFFSET -6.150223 0.000000 0.000000
											CHANNELS 3 Xrotation Yrotation Zrotation
											JOINT RightHandRing4
											{
												OFFSET -6.145386 0.000000 0.000000
												CHANNELS 3 Xrotation Yrotation Zrotation
												End Site
												{
													OFFSET 3.671402 4.923981 -0.202372
												}
											}
										}
									}
								}
								JOINT RightHandPinky1
								{
									OFFSET -18.920792 -0.453171 -11.426712
									CHANNELS 3 Xrotation Yrotation Zrotation
									JOINT RightHandPinky2
									{
										OFFSET -4.919586 0.000000 0.000000
										CHANNELS 3 Xrotation Yrotation Zrotation
										JOINT RightHandPinky3
										{
											OFFSET -5.233047 0.000000 0.000000
											CHANNELS 3 Xrotation Yrotation Zrotation
											JOINT RightHandPinky4
											{
												OFFSET -5.571716 0.000000 0.000000
												CHANNELS 3 Xrotation Yrotation Zrotation
												End Site
												{
													OFFSET 3.459808 4.342407 -0.466164
												}
											}
										}
									}
								}
							}
						}
					}
				}
			}
		}
	}
	JOINT LeftUpLeg
	{
		OFFSET 19.899099 -7.885101 -3.429500
		CHANNELS 3 Xrotation Yrotation Zrotation
		JOINT LeftLeg
		{
			OFFSET 1.745560 -36.997807 10.304700
			CHANNELS 3 Xrotation Yrotation Zrotation
			JOINT LeftFoot
			{
				OFFSET -1.745558 -29.803308 -13.615400
				CHANNELS 3 Xrotation Yrotation Zrotation
				JOINT LeftToeBase
				{
					OFFSET 1.181900 -18.539904 15.226099
					CHANNELS 3 Xrotation Yrotation Zrotation
					JOINT LeftToe_End
					{
						OFFSET -0.863701 1.402801 16.534700
						CHANNELS 3 Xrotation Yrotation Zrotation
						End Site
						{
							OFFSET 0.000000 16.616566 0.000000
						}
					}
				}
			}
		}
	}
	JOINT RightUpLeg
	{
		OFFSET -19.899099 -7.885101 -3.429500
		CHANNELS 3 Xrotation Yrotation Zrotation
		JOINT RightLeg
		{
			OFFSET -1.745560 -36.997807 10.304700
			CHANNELS 3 Xrotation Yrotation Zrotation
			JOINT RightFoot
			{
				OFFSET 1.745558 -29.803308 -13.615400
				CHANNELS 3 Xrotation Yrotation Zrotation
				JOINT RightToeBase
				{
					OFFSET -1.181900 -18.539904 15.226099
					CHANNELS 3 Xrotation Yrotation Zrotation
					JOINT RightToe_End
					{
						OFFSET 0.863701 1.402801 16.534700
						CHANNELS 3 Xrotation Yrotation Zrotation
						End Site
						{
							OFFSET 0.000000 16.616566 0.000000
						}
					}
				}
			}
		}
	}
}
MOTION
Frames: 4
Frame Time: 0.033333
0.096702 74.642380 2.837458 14.879634 -46.514637 10.068613 6.228440 6.589018 -1.246918 0.588810 1.832788 0.125136 0.580777 1.835495 0.097609 9.562962 -0.762805 -1.992858 14.575214 5.776959 -8.142138 0.000002 -0.000001 0.000001 2.820680 2.942397 -7.757863 -10.191442 12.914730 -73.225959 13.629242 -25.099055 6.499039 3.714161 -2.700173 -7.748031 4.766489 -0.870675 -14.442467 15.732335 12.674827 8.828582 63.207056 -8.275018 4.266035 0.000004 -0.000001 -0.000003 -8.868660 8.263631 -85.753872 -0.047924 -0.066891 -74.105661 -0.018484 -0.051631 -48.548790 -0.000000 -0.000001 0.000001 -4.480790 3.914200 -90.412519 -1.097253 -0.675691 -62.310723 -0.104332 1.185552 -72.505873 0.000000 0.000004 0.000000 -5.483659 2.419544 -86.651024 -0.068335 -4.897298 -76.605523 1.509520 0.538126 -67.243267 0.000003 -0.000000 0.000004 -3.610987 -7.817630 -81.262667 0.005184 -4.388510 -67.459074 1.852071 0.687161 -69.585810 -0.000003 0.000003 -0.000003 -14.149963 4.914237 12.100227 12.086850 12.648485 53.733740 -82.002609 68.064659 83.879429 4.377998 -14.238663 38.351352 24.918361 -21.323359 30.343033 9.041916 8.262104 -18.001795 -16.109840 -19.128884 -12.401650 0.000002 0.000000 0.000001 -0.070714 -3.035199 61.424233 0.006463 4.395143 66.609173 1.919200 -0.429140 59.456674 -0.000002 0.000001 -0.000001 -1.235404 -0.119459 68.274250 -0.077302 4.902840 84.501905 0.918974 -1.334261 32.710271 -0.000001 0.000000 -0.000008 0.883176 -4.613473 79.192943 -0.717788 1.136497 73.255773 -0.065390 -1.198590 39.144367 0.000001 0.000001 -0.000005 -3.944579 0.100016 86.764781 -0.029811 0.060119 54.415161 -0.007549 0.030583 25.829837 -0.000003 0.000002 0.000004 -73.789764 22.632107 39.839015 40.096718 -19.288128 4.115277 14.240900 -0.036304 -9.460469 -2.482794 -3.777839 4.046424 -0.000000 -0.000002 0.000000 -17.115428 -26.614787 -44.643062 22.835718 0.823353 0.187044 -5.231308 -10.186650 42.509492 -1.420701 0.634420 -0.992374 -0.000000 -0.000000 -0.000000 
0.030712 74.653061 2.799464 15.076266 -46.612404 10.133171 6.239146 6.540581 -1.226316 0.587021 1.820020 0.137569 0.579377 1.822561 0.110369 9.772221 -1.438364 -2.109173 14.184776 5.006594 -8.109864 0.000002 -0.000003 0.000001 2.803726 2.861501 -7.675504 -10.800054 12.653448 -73.276803 14.086448 -24.657729 6.487180 3.807468 -3.670782 -7.716311 4.766481 -0.870676 -14.442464 15.732333 12.674831 8.828580 63.207062 -8.275018 4.266033 0.000002 0.000002 0.000000 -8.868666 8.263626 -85.753872 -0.047922 -0.066898 -74.105667 -0.018488 -0.051624 -48.548797 -0.000005 0.000000 -0.000007 -4.480794 3.914195 -90.412512 -1.097254 -0.675686 -62.310730 -0.104336 1.185554 -72.505880 -0.000004 -0.000003 -0.000000 -5.483668 2.419542 -86.651024 -0.068334 -4.897294 -76.605523 1.509522 0.538123 -67.243274 0.000000 -0.000002 0.000001 -3.610988 -7.817629 -81.262667 0.005183 -4.388509 -67.459081 1.852074 0.687164 -69.585803 -0.000005 0.000003 0.000004 -13.447783 4.687689 11.650411 11.553537 13.393083 53.441572 -83.247438 68.298210 84.349981 4.012729 -14.121840 37.052236 24.918362 -21.323359 30.343037 9.041914 8.262102 -18.001792 -16.109843 -19.128879 -12.401647 0.000002 -0.000002 0.000001 -0.070712 -3.035194 61.424233 0.006465 4.395144 66.609180 1.919199 -0.429146 59.456674 -0.000003 0.000000 0.000001 -1.235404 -0.119455 68.274250 -0.077300 4.902840 84.501905 0.918974 -1.334262 32.710264 0.000000 -0.000000 -0.000004 0.883178 -4.613468 79.192943 -0.717788 1.136498 73.255773 -0.065385 -1.198590 39.144371 -0.000001 -0.000002 -0.000003 -3.944582 0.100018 86.764781 -0.029808 0.060124 54.415164 -0.007550 0.030588 25.829829 0.000001 -0.000001 -0.000001 -73.862943 22.481617 40.003045 40.058376 -19.251995 4.114003 14.234978 -0.033355 -9.602451 -2.484161 -3.776447 4.050190 0.000000 -0.000001 0.000000 -17.208959 -26.575950 -44.454635 22.850446 0.847796 0.196601 -5.298067 -10.185297 42.406093 -1.427560 0.634713 -0.994696 0.000000 0.000000 -0.000000 
-0.023211 74.676758 2.777982 15.140999 -46.722554 10.202146 6.275799 6.477175 -1.193591 0.597826 1.802547 0.149727 0.590655 1.804993 0.122707 9.986285 -2.120558 -2.196853 13.787389 4.178323 -8.046392 -0.000002 -0.000000 -0.000000 2.779808 2.730935 -7.585127 -11.260080 12.535675 -73.341567 14.407755 -24.343674 6.416702 3.897560 -4.466005 -7.660085 4.766488 -0.870674 -14.442464 15.732337 12.674829 8.828584 63.207056 -8.275018 4.266034 0.000002 -0.000000 -0.000002 -8.868668 8.263629 -85.753865 -0.047921 -0.066897 -74.105667 -0.018484 -0.051630 -48.548790 -0.000001 0.000001 -0.000007 -4.480791 3.914198 -90.412519 -1.097252 -0.675690 -62.310723 -0.104335 1.185556 -72.505880 -0.000006 -0.000002 0.000003 -5.483663 2.419542 -86.651024 -0.068337 -4.897290 -76.605523 1.509522 0.538124 -67.243267 0.000001 -0.000002 0.000001 -3.610992 -7.817631 -81.262661 0.005184 -4.388504 -67.459074 1.852068 0.687156 -69.585803 -0.000001 0.000003 0.000001 -12.722485 4.447806 11.214881 10.965180 13.985712 53.127889 -84.279070 68.962945 84.673001 3.524109 -13.924249 35.369452 24.918371 -21.323369 30.343033 9.041915 8.262102 -18.001795 -16.109845 -19.128881 -12.401648 -0.000001 -0.000002 -0.000000 -0.070713 -3.035196 61.424226 0.006464 4.395144 66.609180 1.919201 -0.429145 59.456674 0.000001 -0.000005 -0.000002 -1.235402 -0.119461 68.274250 -0.077303 4.902840 84.501905 0.918973 -1.334261 32.710268 0.000002 -0.000001 -0.000004 0.883177 -4.613476 79.192943 -0.717787 1.136499 73.255773 -0.065390 -1.198591 39.144371 -0.000000 -0.000002 -0.000005 -3.944580 0.100018 86.764781 -0.029815 0.060121 54.415161 -0.007549 0.030586 25.829836 0.000000 -0.000004 0.000002 -73.780824 22.473496 40.106000 40.000337 -19.198350 4.112013 14.189979 -0.025341 -9.716385 -2.486103 -3.775220 4.059220 0.000000 -0.000001 0.000001 -17.302068 -26.530179 -44.436900 22.870100 0.915094 0.208821 -5.339578 -10.180144 42.331395 -1.437334 0.635007 -0.995499 0.000000 0.000000 -0.000000 
-0.069242 74.696304 2.763470 15.126033 -46.808567 10.176050 6.340482 6.420940 -1.171757 0.617999 1.787139 0.157262 0.611246 1.789551 0.130153 10.194904 -2.780835 -2.259221 13.386986 3.339927 -7.961310 0.000002 0.000001 -0.000000 2.755792 2.565578 -7.538977 -11.729722 12.511338 -73.289952 15.118089 -23.960918 6.471423 3.983651 -5.021278 -7.635936 4.766486 -0.870673 -14.442466 15.732335 12.674831 8.828580 63.207062 -8.275021 4.266034 0.000004 -0.000000 -0.000001 -8.868667 8.263628 -85.753872 -0.047924 -0.066903 -74.105667 -0.018488 -0.051630 -48.548793 -0.000000 0.000001 0.000001 -4.480792 3.914196 -90.412512 -1.097253 -0.675684 -62.310730 -0.104332 1.185553 -72.505873 -0.000003 -0.000001 0.000001 -5.483667 2.419542 -86.651024 -0.068340 -4.897292 -76.605523 1.509524 0.538124 -67.243274 0.000001 -0.000002 0.000001 -3.610985 -7.817635 -81.262661 0.005180 -4.388504 -67.459074 1.852070 0.687165 -69.585803 -0.000006 0.000001 -0.000001 -11.991883 4.206377 10.797853 10.341342 14.444773 52.797977 -85.215093 70.037805 84.985503 2.930815 -13.620846 33.324807 24.918362 -21.323357 30.343030 9.041916 8.262102 -18.001793 -16.109841 -19.128881 -12.401650 -0.000001 0.000001 -0.000000 -0.070716 -3.035199 61.424233 0.006465 4.395143 66.609180 1.919202 -0.429143 59.456674 -0.000001 0.000000 -0.000001 -1.235401 -0.119458 68.274250 -0.077300 4.902841 84.501905 0.918975 -1.334258 32.710268 0.000001 0.000000 -0.000004 0.883178 -4.613475 79.192943 -0.717785 1.136498 73.255773 -0.065388 -1.198589 39.144381 -0.000001 -0.000001 -0.000002 -3.944582 0.100017 86.764781 -0.029807 0.060120 54.415157 -0.007554 0.030583 25.829834 -0.000003 -0.000001 0.000000 -73.708881 22.441865 40.207384 39.986137 -19.186240 4.121837 14.149561 -0.012953 -9.802396 -2.488369 -3.774240 4.071006 0.000000 -0.000003 -0.000000 -17.325010 -26.548008 -44.388535 22.856245 1.002201 0.200333 -5.357115 -10.167134 42.278096 -1.445322 0.635102 -0.996281 -0.000000 -0.000000 -0.000000 
